<!--?xml version="1.0" encoding="utf-8"?-->
<!-- Generator: Adobe Illustrator 18.1.1, SVG Export Plug-In . SVG Version: 6.00 Build 0)  -->

<svg version="1.1" id="_x32_" xmlns="http://www.w3.org/2000/svg" xmlns:xlink="http://www.w3.org/1999/xlink" x="0px" y="0px" viewBox="0 0 512 512" style="width: 128px; height: 128px; opacity: 1;" xml:space="preserve">
<style type="text/css">
	.st0{fill:#4B4B4B;}
</style>
<g>
	<path class="st0" d="M35.558,0.014v68.062c225.154,0,408.38,183.16,408.38,408.379H512C512,213.724,298.289,0.014,35.558,0.014z" style="fill: rgb(75, 75, 75);"></path>
	<path class="st0" d="M35.558,136.139v68.07c150.15,0,272.257,122.09,272.257,272.246h68.062
		C375.876,288.795,223.21,136.139,35.558,136.139z" style="fill: rgb(75, 75, 75);"></path>
	<path class="st0" d="M35.558,272.26v68.07c75.089,0,136.133,61.047,136.133,136.125h68.062
		C239.753,363.799,148.148,272.26,35.558,272.26z" style="fill: rgb(75, 75, 75);"></path>
	<path class="st0" d="M49.18,413.646c-27.16,0-49.18,22-49.18,49.168s22.02,49.172,49.18,49.172
		c27.159,0,49.179-22.004,49.179-49.172S76.339,413.646,49.18,413.646z" style="fill: rgb(75, 75, 75);"></path>
</g>
</svg>
